{
 "cells": [
  {
   "cell_type": "code",
   "execution_count": 1,
   "id": "a40dbd6c-5f83-4478-9a2f-79b7ae71b68e",
   "metadata": {},
   "outputs": [],
   "source": [
    "from collections import *\n",
    "from heapq import *\n",
    "from functools import *\n",
    "from math import *\n",
    "import numpy as np\n",
    "import copy\n",
    "\n",
    "data = None\n",
    "\n",
    "with open('input.txt', 'r') as file:\n",
    "    data = file.readlines()\n",
    "    data = [d.strip() for d in data]\n",
    "    data = [d.split(\",\") for d in data]\n",
    "    data = [(int(x),int(y)) for x,y in data]\n",
    "#print(data)"
   ]
  },
  {
   "cell_type": "code",
   "execution_count": 2,
   "id": "138d10fa-245c-4b1a-b588-8a358c869922",
   "metadata": {},
   "outputs": [
    {
     "name": "stdout",
     "output_type": "stream",
     "text": [
      "312\n"
     ]
    }
   ],
   "source": [
    "m,n = 70,70\n",
    "byte = 1024\n",
    "q = [(0,0)]\n",
    "seen = set(q)\n",
    "barriers = set(data[:byte])\n",
    "def isEmpty(x,y):\n",
    "    if 0<=x<=n and 0<=y <=m:\n",
    "        return (x,y) not in barriers\n",
    "    return False\n",
    "\n",
    "v = 0\n",
    "for step in range(1,m*n):\n",
    "    v = step\n",
    "    newq = [] \n",
    "    for x,y in q:\n",
    "        for nx,ny in [[x,y+1],[x,y-1],[x-1,y],[x+1,y]]:\n",
    "            tup = (nx,ny)\n",
    "            if tup in seen:\n",
    "                continue\n",
    "            if not isEmpty(nx,ny):\n",
    "                continue\n",
    "            seen.add(tup)\n",
    "            newq.append(tup)\n",
    "    if (n,m) in seen or len(newq) == 0:\n",
    "        break\n",
    "    q = newq\n",
    "print(v)\n"
   ]
  },
  {
   "cell_type": "code",
   "execution_count": 3,
   "id": "c352062f-bb72-42df-99bc-3bc0d9d8face",
   "metadata": {},
   "outputs": [
    {
     "name": "stdout",
     "output_type": "stream",
     "text": [
      "(28, 26)\n"
     ]
    }
   ],
   "source": [
    "group = defaultdict(int)\n",
    "\n",
    "def gen(x,y):\n",
    "    return y*(m+1) + x\n",
    "    \n",
    "for y in range(m+1):\n",
    "    for x in range(n+1):\n",
    "        group[gen(x,y)] = gen(x,y)\n",
    "\n",
    "def isEmpty(genxy):\n",
    "    if genxy < 0 or genxy > gen(n,m):\n",
    "        return False\n",
    "    return (genxy) not in barriers\n",
    "\n",
    "def find(genxy):\n",
    "    if group[genxy] != genxy:\n",
    "        group[genxy] = find(group[genxy])\n",
    "    return group[genxy]\n",
    "\n",
    "def join(agen,bgen):\n",
    "    arep = find(agen)\n",
    "    brep = find(bgen)\n",
    "    group[arep] = brep\n",
    "    return\n",
    "    \n",
    "def joinEdges(x,y):\n",
    "    genxy = gen(x,y)\n",
    "    if not isEmpty(genxy):\n",
    "        return\n",
    "    for nx,ny in [[x,y+1],[x,y-1],[x-1,y],[x+1,y]]:\n",
    "        if 0 <= nx <=n and 0<= ny <=m:\n",
    "            ngenxy = gen(nx,ny)\n",
    "            if isEmpty(ngenxy):\n",
    "                join(genxy,ngenxy)\n",
    "\n",
    "barriers = set([gen(x,y) for x,y in data])\n",
    "barrierq = data[:]\n",
    "\n",
    "#initial \n",
    "for x in range(n+1):\n",
    "    for y in range(m+1):\n",
    "        joinEdges(x,y)\n",
    "found = -1\n",
    "\n",
    "while barrierq:\n",
    "    bx,by = barrierq.pop()\n",
    "    barriers.remove(gen(bx,by))\n",
    "    joinEdges(bx,by)\n",
    "    start = find(gen(0,0))\n",
    "    end = find(gen(n,m))\n",
    "    if start == end:\n",
    "        found = (bx,by)\n",
    "        break\n",
    "print(found)"
   ]
  },
  {
   "cell_type": "code",
   "execution_count": 4,
   "id": "a60e5d84-21da-435c-ba95-2163c8577f81",
   "metadata": {},
   "outputs": [
    {
     "name": "stdout",
     "output_type": "stream",
     "text": [
      "(28, 26)\n"
     ]
    },
    {
     "name": "stderr",
     "output_type": "stream",
     "text": [
      "ffmpeg version 4.4 Copyright (c) 2000-2021 the FFmpeg developers\n",
      "  built with gcc 9.4.0 (GCC)\n",
      "  configuration: --prefix=/home/josh/anaconda3 --cc=/home/conda/feedstock_root/build_artifacts/ffmpeg_1634179802525/_build_env/bin/x86_64-conda-linux-gnu-cc --disable-doc --disable-openssl --enable-avresample --enable-gnutls --enable-gpl --enable-hardcoded-tables --enable-libfreetype --enable-libopenh264 --enable-libx264 --enable-pic --enable-pthreads --enable-shared --enable-static --enable-version3 --enable-zlib --enable-libmp3lame --pkg-config=/home/conda/feedstock_root/build_artifacts/ffmpeg_1634179802525/_build_env/bin/pkg-config\n",
      "  libavutil      56. 70.100 / 56. 70.100\n",
      "  libavcodec     58.134.100 / 58.134.100\n",
      "  libavformat    58. 76.100 / 58. 76.100\n",
      "  libavdevice    58. 13.100 / 58. 13.100\n",
      "  libavfilter     7.110.100 /  7.110.100\n",
      "  libavresample   4.  0.  0 /  4.  0.  0\n",
      "  libswscale      5.  9.100 /  5.  9.100\n",
      "  libswresample   3.  9.100 /  3.  9.100\n",
      "  libpostproc    55.  9.100 / 55.  9.100\n",
      "Input #0, png_pipe, from 'visualisations/aoc2024day18/generated_palette.png':\n",
      "  Duration: N/A, bitrate: N/A\n",
      "  Stream #0:0: Video: png, rgba(pc), 200x40 [SAR 3937:3937 DAR 5:1], 25 fps, 25 tbr, 25 tbn, 25 tbc\n",
      "Stream mapping:\n",
      "  Stream #0:0 -> #0:0 (png (native) -> png (native))\n",
      "Press [q] to stop, [?] for help\n",
      "[Parsed_palettegen_0 @ 0x64134988fe80] 5(+1) colors generated out of 5 colors; ratio=1.000000\n",
      "Output #0, image2, to 'visualisations/aoc2024day18/palette.png':\n",
      "  Metadata:\n",
      "    encoder         : Lavf58.76.100\n",
      "  Stream #0:0: Video: png, rgba(pc, progressive), 16x16 [SAR 1:1 DAR 1:1], q=2-31, 200 kb/s, 25 fps, 25 tbn\n",
      "    Metadata:\n",
      "      encoder         : Lavc58.134.100 png\n",
      "frame=    1 fps=0.0 q=-0.0 Lsize=N/A time=00:00:00.04 bitrate=N/A speed=7.72x    \n",
      "video:0kB audio:0kB subtitle:0kB other streams:0kB global headers:0kB muxing overhead: unknown\n",
      "ffmpeg version 4.4 Copyright (c) 2000-2021 the FFmpeg developers\n",
      "  built with gcc 9.4.0 (GCC)\n",
      "  configuration: --prefix=/home/josh/anaconda3 --cc=/home/conda/feedstock_root/build_artifacts/ffmpeg_1634179802525/_build_env/bin/x86_64-conda-linux-gnu-cc --disable-doc --disable-openssl --enable-avresample --enable-gnutls --enable-gpl --enable-hardcoded-tables --enable-libfreetype --enable-libopenh264 --enable-libx264 --enable-pic --enable-pthreads --enable-shared --enable-static --enable-version3 --enable-zlib --enable-libmp3lame --pkg-config=/home/conda/feedstock_root/build_artifacts/ffmpeg_1634179802525/_build_env/bin/pkg-config\n",
      "  libavutil      56. 70.100 / 56. 70.100\n",
      "  libavcodec     58.134.100 / 58.134.100\n",
      "  libavformat    58. 76.100 / 58. 76.100\n",
      "  libavdevice    58. 13.100 / 58. 13.100\n",
      "  libavfilter     7.110.100 /  7.110.100\n",
      "  libavresample   4.  0.  0 /  4.  0.  0\n",
      "  libswscale      5.  9.100 /  5.  9.100\n",
      "  libswresample   3.  9.100 /  3.  9.100\n",
      "  libpostproc    55.  9.100 / 55.  9.100\n",
      "Input #0, image2, from 'visualisations/aoc2024day18/frames/%09d.png':\n",
      "  Duration: 00:00:39.38, start: 0.000000, bitrate: N/A\n",
      "  Stream #0:0: Video: png, rgba(pc), 800x800 [SAR 3937:3937 DAR 1:1], 24 fps, 24 tbr, 24 tbn, 24 tbc\n",
      "Input #1, png_pipe, from 'visualisations/aoc2024day18/palette.png':\n",
      "  Duration: N/A, bitrate: N/A\n",
      "  Stream #1:0: Video: png, rgba(pc), 16x16 [SAR 1:1 DAR 1:1], 25 fps, 25 tbr, 25 tbn, 25 tbc\n",
      "Stream mapping:\n",
      "  Stream #0:0 (png) -> paletteuse:default\n",
      "  Stream #1:0 (png) -> paletteuse:palette\n",
      "  paletteuse -> Stream #0:0 (gif)\n",
      "Press [q] to stop, [?] for help\n",
      "[image2 @ 0x575d5b2735c0] Thread message queue blocking; consider raising the thread_queue_size option (current value: 8)\n",
      "Output #0, gif, to 'visualisations/aoc2024day18/aoc2024day18.gif':\n",
      "  Metadata:\n",
      "    encoder         : Lavf58.76.100\n",
      "  Stream #0:0: Video: gif, pal8(pc, progressive), 800x800 [SAR 1:1 DAR 1:1], q=2-31, 200 kb/s, 24 fps, 100 tbn (default)\n",
      "    Metadata:\n",
      "      encoder         : Lavc58.134.100 gif\n",
      "frame=  945 fps= 81 q=-0.0 Lsize=      78kB time=00:00:39.34 bitrate=  16.2kbits/s speed=3.36x    \n",
      "video:78kB audio:0kB subtitle:0kB other streams:0kB global headers:0kB muxing overhead: 0.025052%\n"
     ]
    }
   ],
   "source": [
    "import sys\n",
    "import os\n",
    "\n",
    "# Get the parent directory\n",
    "parent_dir = os.path.abspath(os.path.join(os.getcwd(), '..'))\n",
    "# Add the parent directory to sys.path\n",
    "if parent_dir not in sys.path:\n",
    "    sys.path.append(parent_dir)\n",
    "\n",
    "# Now you can import the file\n",
    "from viz import VideoGenerator\n",
    "\n",
    "group = defaultdict(int)\n",
    "\n",
    "def gen(x,y):\n",
    "    return y*(m+1) + x\n",
    "    \n",
    "for y in range(m+1):\n",
    "    for x in range(n+1):\n",
    "        group[gen(x,y)] = gen(x,y)\n",
    "\n",
    "def isEmpty(genxy):\n",
    "    if genxy < 0 or genxy > gen(n,m):\n",
    "        return False\n",
    "    return (genxy) not in barriers\n",
    "\n",
    "def find(genxy):\n",
    "    if group[genxy] != genxy:\n",
    "        group[genxy] = find(group[genxy])\n",
    "    return group[genxy]\n",
    "\n",
    "def join(agen,bgen):\n",
    "    arep = find(agen)\n",
    "    brep = find(bgen)\n",
    "    group[arep] = brep\n",
    "    return\n",
    "    \n",
    "def joinEdges(x,y):\n",
    "    genxy = gen(x,y)\n",
    "    if not isEmpty(genxy):\n",
    "        return\n",
    "    for nx,ny in [[x,y+1],[x,y-1],[x-1,y],[x+1,y]]:\n",
    "        if 0 <= nx <=n and 0<= ny <=m:\n",
    "            ngenxy = gen(nx,ny)\n",
    "            if isEmpty(ngenxy):\n",
    "                join(genxy,ngenxy)\n",
    "\n",
    "barriers = set([gen(x,y) for x,y in data])\n",
    "barrierq = data[:]\n",
    "\n",
    "def getFrame(isFinished=False):\n",
    "    start = find(gen(0,0))\n",
    "    end = find(gen(n,m))\n",
    "    startcolour = 2\n",
    "    endcolour = 3\n",
    "    if isFinished:\n",
    "        startcolour = 4\n",
    "        endcolour = 4\n",
    "    frame = []\n",
    "    for y in range(m+1):\n",
    "        row = []\n",
    "        for x in range(n+1):\n",
    "            g = gen(x,y)\n",
    "            group = find(g)\n",
    "            if g in barriers:\n",
    "                row.append(1)\n",
    "                continue\n",
    "            if group == start:\n",
    "                row.append(startcolour)\n",
    "                continue\n",
    "            if group == end:\n",
    "                row.append(endcolour)\n",
    "                continue\n",
    "            row.append(0)\n",
    "            continue\n",
    "        frame.append(row)\n",
    "    return frame\n",
    "\n",
    "colourMap = {\n",
    "    0: (255,255,255), # white\n",
    "    1: (100,100,100), # grey\n",
    "    2: (255,0,0), #red\n",
    "    3: (0,0,255), #blue\n",
    "    4: (0,255,0), #green\n",
    "}\n",
    "fps = 24\n",
    "Video = VideoGenerator(\"aoc2024day18\",colourMap)\n",
    "\n",
    "for i in range(fps*1): # hold for 1 secs\n",
    "    Video.draw_frame(getFrame())\n",
    "    Video.print_frame()\n",
    "\n",
    "\n",
    "#initial \n",
    "for x in range(n+1):\n",
    "    for y in range(m+1):\n",
    "        joinEdges(x,y)\n",
    "found = -1\n",
    "\n",
    "for i in range(fps*1): # hold for 1 secs\n",
    "    Video.draw_frame(getFrame())\n",
    "    Video.print_frame()\n",
    "\n",
    "while barrierq:\n",
    "    bx,by = barrierq.pop()\n",
    "    barriers.remove(gen(bx,by))\n",
    "    Video.draw_frame(getFrame())\n",
    "    Video.print_frame()\n",
    "    joinEdges(bx,by)\n",
    "    start = find(gen(0,0))\n",
    "    end = find(gen(n,m))\n",
    "    if start == end:\n",
    "        found = (bx,by)\n",
    "        break\n",
    "    Video.draw_frame(getFrame())\n",
    "    Video.print_frame()\n",
    "\n",
    "for i in range(fps*3): # hold for 3 secs\n",
    "    Video.draw_frame(getFrame(isFinished=True))\n",
    "    Video.print_frame()\n",
    "Video.print_video(framerate=fps)"
   ]
  }
 ],
 "metadata": {
  "kernelspec": {
   "display_name": "Python 3 (ipykernel)",
   "language": "python",
   "name": "python3"
  },
  "language_info": {
   "codemirror_mode": {
    "name": "ipython",
    "version": 3
   },
   "file_extension": ".py",
   "mimetype": "text/x-python",
   "name": "python",
   "nbconvert_exporter": "python",
   "pygments_lexer": "ipython3",
   "version": "3.10.15"
  }
 },
 "nbformat": 4,
 "nbformat_minor": 5
}
